<svg width="22" height="20" viewBox="0 0 22 20" fill="none" xmlns="http://www.w3.org/2000/svg">
<path d="M8.29446 17.9962C7.16774 16.9945 6.04006 15.9945 4.91144 14.9963C3.57274 13.8081 2.23932 12.6148 0.895126 11.4344C0.76396 11.3372 0.658573 11.2013 0.590285 11.0412C0.521997 10.8811 0.49339 10.7028 0.507537 10.5256C0.510656 10.4617 0.510686 10.3977 0.507627 10.3338C0.488842 10.1354 0.52807 9.9354 0.61926 9.76482C0.710449 9.59424 0.848525 9.46251 1.01217 9.38998C2.93557 8.32309 4.85496 7.24468 6.77636 6.17203C8.64026 5.13119 10.505 4.09044 12.3705 3.04976C12.4805 2.98976 12.6025 2.96401 12.7242 2.97513C12.8458 2.98625 12.9626 3.03386 13.0628 3.11308C13.1629 3.1923 13.2428 3.3003 13.2941 3.42605C13.3455 3.5518 13.3666 3.6908 13.3553 3.82885C13.3429 3.96034 13.3014 4.08612 13.2346 4.19446C13.1679 4.3028 13.0781 4.39018 12.9736 4.44845L2.93698 10.0526C2.67106 10.2013 2.40513 10.3501 2.11608 10.5132C2.18779 10.5828 2.23871 10.6366 2.29491 10.6852L4.79748 12.9011L8.42483 16.1283C8.6815 16.354 8.93838 16.5769 9.1922 16.8079C9.29521 16.8951 9.37471 17.0133 9.42176 17.1492C9.4688 17.285 9.48151 17.4331 9.45844 17.5767C9.44131 17.7109 9.39175 17.837 9.31526 17.9411C9.23878 18.0452 9.13837 18.1231 9.02522 18.1662C8.90123 18.2152 8.76789 18.2253 8.63927 18.1954C8.51064 18.1655 8.39152 18.0967 8.29446 17.9962Z" fill="#3344E5"/>
<rect width="21.5321" height="1.52917" rx="0.764585" transform="matrix(-1 0 0 1 22 9.68481)" fill="#3344E5"/>
</svg>
