<svg width="90" height="90" viewBox="0 0 90 90" fill="none" xmlns="http://www.w3.org/2000/svg">
<path d="M82.755 26.0606C82.3044 24.3985 81.4266 22.8832 80.2089 21.6655C78.9912 20.4477 77.4759 19.5699 75.8138 19.1194C69.6488 17.4937 45 17.4937 45 17.4937C45 17.4937 20.3512 17.4937 14.1863 19.1194C10.8113 20.025 8.15625 22.6856 7.245 26.0606C5.625 32.22 5.625 45 5.625 45C5.625 45 5.625 57.8419 7.245 63.9394C8.15625 67.3144 10.8169 69.975 14.1863 70.8806C20.3512 72.5062 45 72.5062 45 72.5062C45 72.5062 69.6488 72.5062 75.8138 70.8806C77.4759 70.43 78.9912 69.5523 80.2089 68.3345C81.4266 67.1168 82.3044 65.6015 82.755 63.9394C84.375 57.78 84.375 45 84.375 45C84.375 45 84.375 32.22 82.755 26.0606Z" fill="#FF0000"/>
<path d="M37.0859 56.8687L57.5834 45.0675L37.0859 33.1987V56.8687Z" fill="white"/>
</svg>
