<svg width="17" height="15" viewBox="0 0 17 15" fill="none" xmlns="http://www.w3.org/2000/svg">
<path fill-rule="evenodd" clip-rule="evenodd" d="M1.16866 6.4574C5.73205 4.34056 8.77503 2.945 10.2976 2.27074C14.6448 0.345581 15.5481 0.0111605 16.1369 0.000117741C16.2664 -0.00231099 16.5559 0.031858 16.7435 0.19389C16.9018 0.330707 16.9454 0.515527 16.9663 0.645244C16.9871 0.774961 17.0131 1.07046 16.9924 1.30136C16.7569 3.93675 15.7375 10.3322 15.2189 13.2838C14.9995 14.5328 14.5674 14.9516 14.1492 14.9926C13.2401 15.0816 12.5498 14.3529 11.6694 13.7384C10.2916 12.7769 9.5133 12.1783 8.17597 11.24C6.63045 10.1556 7.63235 9.55964 8.51313 8.58562C8.74364 8.33071 12.7489 4.45188 12.8264 4.10001C12.8361 4.05601 12.8451 3.89197 12.7536 3.80535C12.6621 3.71873 12.527 3.74835 12.4295 3.77191C12.2913 3.8053 10.0904 5.35418 5.82663 8.41854C5.2019 8.87529 4.63604 9.09783 4.12904 9.08617C3.57012 9.07331 2.49499 8.7497 1.69573 8.47308C0.715411 8.1338 -0.063727 7.95442 0.00411841 7.37821C0.0394565 7.07809 0.427637 6.77115 1.16866 6.4574Z" fill="#A9B0F4"/>
</svg>
