<svg width="88" height="63" viewBox="0 0 88 63" fill="none" xmlns="http://www.w3.org/2000/svg">
<g clip-path="url(#clip0_922_4957)">
<rect width="75" height="54" rx="5" fill="white"/>
<path fill-rule="evenodd" clip-rule="evenodd" d="M16.4908 11.842C14.7868 11.842 13.3582 12.9943 13.2452 14.4495L13.2452 14.45C13.1945 15.0965 13.3085 16.0051 13.8072 16.7321C14.2798 17.4212 15.1574 18.0359 16.8386 18.0359C17.7674 18.0359 18.4756 17.6681 18.9616 17.0919C19.4568 16.505 19.7468 15.6686 19.7468 14.7155C19.7468 12.9273 18.2136 11.842 16.4908 11.842ZM12.0127 14.3542C12.1875 12.1046 14.3075 10.6101 16.4908 10.6101C18.6553 10.6101 20.983 12.0293 20.983 14.7155C20.983 15.9081 20.6206 17.0398 19.9079 17.8846C19.1862 18.7402 18.1312 19.2678 16.8386 19.2678C14.8037 19.2678 13.5187 18.4947 12.7865 17.4273C12.0805 16.398 11.9478 15.1819 12.0127 14.3542Z" fill="#E7E8FF"/>
<path fill-rule="evenodd" clip-rule="evenodd" d="M16.1725 4.62764C16.5138 4.63627 16.7834 4.91895 16.7748 5.25903L16.6892 8.62325C16.6805 8.96333 16.3969 9.23203 16.0556 9.22341C15.7143 9.21479 15.4447 8.93211 15.4533 8.59203L15.5389 5.2278C15.5476 4.88772 15.8312 4.61902 16.1725 4.62764Z" fill="#E7E8FF"/>
<path fill-rule="evenodd" clip-rule="evenodd" d="M22.3052 6.41148C22.5903 6.59863 22.6692 6.98065 22.4813 7.26473L20.7125 9.94023C20.5247 10.2243 20.1413 10.3029 19.8563 10.1157C19.5712 9.92857 19.4923 9.54656 19.6801 9.26248L21.449 6.58698C21.6368 6.3029 22.0201 6.22432 22.3052 6.41148Z" fill="#E7E8FF"/>
<path fill-rule="evenodd" clip-rule="evenodd" d="M26.0372 11.7522C26.1192 12.0825 25.9171 12.4164 25.5857 12.4982L22.7083 13.2083C22.3769 13.29 22.0417 13.0886 21.9597 12.7584C21.8776 12.4282 22.0797 12.0942 22.4111 12.0124L25.2886 11.3024C25.62 11.2206 25.9551 11.422 26.0372 11.7522Z" fill="#E7E8FF"/>
<path fill-rule="evenodd" clip-rule="evenodd" d="M22.01 16.4084C22.0493 16.0705 22.3561 15.8283 22.6952 15.8674L25.8145 16.2277C26.1536 16.2668 26.3966 16.5725 26.3573 16.9105C26.318 17.2484 26.0112 17.4906 25.6721 17.4514L22.5529 17.0912C22.2138 17.052 21.9707 16.7463 22.01 16.4084Z" fill="#E7E8FF"/>
<path fill-rule="evenodd" clip-rule="evenodd" d="M20.2981 19.4932C20.517 19.2322 20.9069 19.1974 21.1688 19.4155L23.5541 21.4019C23.8161 21.62 23.851 22.0085 23.6321 22.2695C23.4132 22.5305 23.0233 22.5653 22.7614 22.3472L20.3761 20.3609C20.1141 20.1427 20.0792 19.7543 20.2981 19.4932Z" fill="#E7E8FF"/>
<path fill-rule="evenodd" clip-rule="evenodd" d="M16.7703 20.8295C17.1105 20.8015 17.4092 21.0536 17.4373 21.3926L17.7119 24.6983C17.74 25.0373 17.487 25.3349 17.1468 25.363C16.8066 25.391 16.508 25.1389 16.4798 24.7999L16.2053 21.4942C16.1771 21.1552 16.4301 20.8576 16.7703 20.8295Z" fill="#E7E8FF"/>
<path fill-rule="evenodd" clip-rule="evenodd" d="M13.2208 20.0415C13.5136 20.2163 13.6088 20.5946 13.4334 20.8864L11.7384 23.7067C11.5629 23.9985 11.1833 24.0934 10.8905 23.9186C10.5976 23.7438 10.5024 23.3655 10.6778 23.0737L12.3729 20.2534C12.5483 19.9616 12.9279 19.8667 13.2208 20.0415Z" fill="#E7E8FF"/>
<path fill-rule="evenodd" clip-rule="evenodd" d="M10.6569 17.2598C10.7865 17.5745 10.6355 17.9343 10.3197 18.0634L7.17128 19.3506C6.85544 19.4797 6.49436 19.3293 6.36478 19.0145C6.2352 18.6998 6.3862 18.34 6.70203 18.2109L9.85042 16.9237C10.1663 16.7946 10.5273 16.945 10.6569 17.2598Z" fill="#E7E8FF"/>
<path fill-rule="evenodd" clip-rule="evenodd" d="M6.35731 12.028C6.44187 11.6984 6.77855 11.4995 7.10929 11.5838L10.1917 12.3692C10.5224 12.4534 10.722 12.7889 10.6374 13.1185C10.5528 13.4481 10.2162 13.647 9.88542 13.5627L6.80305 12.7773C6.4723 12.6931 6.27274 12.3576 6.35731 12.028Z" fill="#E7E8FF"/>
<path fill-rule="evenodd" clip-rule="evenodd" d="M9.75059 6.84117C10.0114 6.62168 10.4014 6.65445 10.6217 6.91437L12.7251 9.39659C12.9454 9.65651 12.9125 10.0451 12.6517 10.2646C12.3909 10.4841 12.0009 10.4513 11.7806 10.1914L9.67713 7.7092C9.45687 7.44928 9.48976 7.06065 9.75059 6.84117Z" fill="#E7E8FF"/>
<path fill-rule="evenodd" clip-rule="evenodd" d="M22.4061 35.3557C15.7117 35.8515 8.53504 38.9133 0.767192 47.0771C0.54535 47.3102 0.175845 47.32 -0.0581218 47.0989C-0.292088 46.8779 -0.301917 46.5097 -0.0800754 46.2765C7.84889 37.9435 15.2838 34.7165 22.3196 34.1954C29.3251 33.6765 35.8568 35.8497 41.9444 38.1459C42.6705 38.4197 43.3894 38.6949 44.1016 38.9675C49.411 40.9997 54.3485 42.8896 59.0971 43.0301C61.7658 43.1091 64.3602 42.6319 66.9094 41.3068C69.4628 39.9795 72.0018 37.7853 74.5312 34.3857C74.7232 34.1276 75.0888 34.0735 75.3478 34.2648C75.6068 34.4562 75.6611 34.8205 75.4691 35.0786C72.8608 38.5844 70.1944 40.9115 67.4494 42.3383C64.7004 43.7674 61.9035 44.2772 59.0624 44.1931C54.0996 44.0462 48.9576 42.0757 43.6796 40.053C42.9659 39.7795 42.2497 39.5051 41.5311 39.234C35.4477 36.9395 29.1307 34.8576 22.4061 35.3557Z" fill="#E7E8FF"/>
<path d="M56.133 35.8352L55.8477 43.2476L60.306 43.457L59.6241 35.9886C58.2559 36.3487 56.9783 36.1089 56.133 35.8352Z" stroke="#E7E8FF" stroke-linecap="round" stroke-linejoin="round"/>
<path d="M55.0992 35.4032C49.3136 36.6219 47.7141 32.1216 47.7141 30.6686C43.4802 29.4499 43.4802 22.6995 46.96 21.7131C47.4307 16.135 53.7813 15.1035 56.6037 17.0725C64.3181 15.7573 65.9678 19.5099 66.1997 22.1822C70.1043 24.9477 67.6583 29.5883 66.4347 30.0104C66.2688 33.386 63.7506 35.2792 61.4485 35.1201C58.4099 37.3058 55.0992 35.4032 55.0992 35.4032Z" stroke="#E7E8FF" stroke-linecap="round" stroke-linejoin="round"/>
<path d="M51.9375 26.5328C51.9375 26.5328 52.5817 22.1126 57.045 22.4063" stroke="#E7E8FF" stroke-linecap="round" stroke-linejoin="round"/>
</g>
<rect x="0.5" y="0.5" width="74" height="53" rx="4.5" stroke="#E7E8FF"/>
<circle cx="78" cy="53" r="9.5" fill="white" stroke="#E7E8FF"/>
<path d="M78.5264 49.8926V52.668H81.0078C81.1081 52.668 81.1582 52.7181 81.1582 52.8184V53.5361C81.1582 53.6364 81.1081 53.6865 81.0078 53.6865H78.5264V56.4482C78.5264 56.5485 78.4762 56.5986 78.376 56.5986H77.6445C77.5443 56.5986 77.4941 56.5485 77.4941 56.4482V53.6865H74.999C74.8942 53.6865 74.8418 53.6364 74.8418 53.5361V52.8184C74.8418 52.7181 74.8942 52.668 74.999 52.668H77.4941V49.8926C77.4941 49.7923 77.5443 49.7422 77.6445 49.7422H78.376C78.4762 49.7422 78.5264 49.7923 78.5264 49.8926Z" fill="#A9B0F4"/>
<defs>
<clipPath id="clip0_922_4957">
<rect width="75" height="54" rx="5" fill="white"/>
</clipPath>
</defs>
</svg>
