<svg width="43" height="41" viewBox="0 0 43 41" fill="none" xmlns="http://www.w3.org/2000/svg">
<path d="M26.7922 36.9908C28.9944 34.9874 31.1985 32.9874 33.4044 30.991C36.0209 28.6146 38.6271 26.2281 41.2544 23.8672C41.5108 23.6729 41.7167 23.401 41.8502 23.0808C41.9837 22.7605 42.0396 22.4041 42.0119 22.0497C42.0058 21.9219 42.0058 21.7938 42.0118 21.666C42.0485 21.2691 41.9718 20.8692 41.7936 20.5281C41.6153 20.1869 41.3455 19.9234 41.0256 19.7784C37.2663 17.6446 33.5148 15.4878 29.7593 13.3425C26.1163 11.2608 22.4717 9.17929 18.8255 7.09794C18.6105 6.97793 18.3719 6.92643 18.1342 6.94867C17.8965 6.97092 17.6681 7.06613 17.4724 7.22457C17.2766 7.38301 17.1206 7.59901 17.0201 7.85052C16.9197 8.10202 16.8784 8.38002 16.9006 8.65612C16.9249 8.9191 17.0061 9.17066 17.1365 9.38734C17.267 9.60402 17.4425 9.77877 17.6467 9.89532L37.2635 21.1036C37.7833 21.4011 38.303 21.6985 38.868 22.0247C38.7278 22.1641 38.6283 22.2715 38.5185 22.3689L33.6271 26.8007L26.5374 33.2549C26.0357 33.7063 25.5336 34.1522 25.0375 34.6142C24.8362 34.7886 24.6808 35.025 24.5888 35.2967C24.4969 35.5684 24.4721 35.8646 24.5171 36.1518C24.5506 36.4202 24.6475 36.6725 24.797 36.8806C24.9465 37.0888 25.1427 37.2446 25.3639 37.3307C25.6062 37.4288 25.8668 37.449 26.1182 37.3892C26.3696 37.3294 26.6025 37.1917 26.7922 36.9908Z" fill="#A9B0F4"/>
<rect y="20.3677" width="42.0851" height="3.05834" rx="1.52917" fill="#A9B0F4"/>
</svg>
