<svg width="34" height="34" viewBox="0 0 34 34" fill="none" xmlns="http://www.w3.org/2000/svg">
<path d="M16.9987 28.9999C12.832 28.9999 9.1487 26.8666 6.9987 23.6666C7.0487 20.3333 13.6654 18.4999 16.9987 18.4999C20.332 18.4999 26.9487 20.3333 26.9987 23.6666C24.8487 26.8666 21.1654 28.9999 16.9987 28.9999ZM16.9987 5.33325C18.3248 5.33325 19.5966 5.86004 20.5342 6.79772C21.4719 7.7354 21.9987 9.00717 21.9987 10.3333C21.9987 11.6593 21.4719 12.9311 20.5342 13.8688C19.5966 14.8065 18.3248 15.3333 16.9987 15.3333C15.6726 15.3333 14.4008 14.8065 13.4632 13.8688C12.5255 12.9311 11.9987 11.6593 11.9987 10.3333C11.9987 9.00717 12.5255 7.7354 13.4632 6.79772C14.4008 5.86004 15.6726 5.33325 16.9987 5.33325ZM16.9987 0.333252C14.81 0.333252 12.6427 0.764348 10.6206 1.60193C8.59855 2.4395 6.76123 3.66716 5.21358 5.21481C2.08798 8.34041 0.332031 12.5796 0.332031 16.9999C0.332031 21.4202 2.08798 25.6594 5.21358 28.785C6.76123 30.3327 8.59855 31.5603 10.6206 32.3979C12.6427 33.2355 14.81 33.6666 16.9987 33.6666C21.419 33.6666 25.6582 31.9106 28.7838 28.785C31.9094 25.6594 33.6654 21.4202 33.6654 16.9999C33.6654 7.78325 26.1654 0.333252 16.9987 0.333252Z" fill="white"/>
</svg>
