<svg width="42" height="26" viewBox="0 0 42 26" fill="none" xmlns="http://www.w3.org/2000/svg">
<path d="M41.3312 13C41.3312 19.8041 35.7989 25.3999 28.9312 25.3999C22.1271 25.3999 16.5312 19.8041 16.5312 13C16.5312 6.19591 22.0635 0.600037 28.8676 0.600037C35.7989 0.600037 41.3312 6.19591 41.3312 13Z" fill="#F9B50B"/>
<path d="M24.7363 13.0636C24.7363 12.1733 24.6091 11.2831 24.482 10.4564H16.8512C16.9148 10.0113 17.042 9.62975 17.1692 9.12103H23.9732C23.8461 8.6759 23.6553 8.23078 23.4645 7.78565H17.6779C17.8687 7.34052 18.123 6.95899 18.3774 6.45027H22.765C22.5107 6.00514 22.1927 5.56002 21.8112 5.11489H19.3948C19.7763 4.66976 20.1579 4.28823 20.6666 3.8431C18.5045 1.80824 15.5794 0.600037 12.3364 0.600037C5.59588 0.790805 0 6.19591 0 13C0 19.8041 5.53229 25.3999 12.4 25.3999C15.643 25.3999 18.5045 24.1282 20.7302 22.1569C21.1753 21.7753 21.5568 21.3302 22.002 20.8215H19.4584C19.1404 20.44 18.8225 19.9948 18.5681 19.5497H22.8922C23.1466 19.1682 23.4009 18.723 23.5917 18.2143H17.8051C17.6143 17.8328 17.4235 17.3877 17.2963 16.879H24.1004C24.482 15.7343 24.7363 14.4625 24.7363 13.0636Z" fill="#C8191C"/>
<path d="M16.7905 16.1794L16.9813 15.0348C16.9177 15.0348 16.7905 15.0984 16.6633 15.0984C16.2182 15.0984 16.1546 14.844 16.2182 14.7168L16.5997 12.4276H17.2992L17.49 11.1558H16.8541L16.9813 10.3928H15.6459C15.6459 10.3928 14.8828 14.7168 14.8828 15.2256C14.8828 15.9886 15.3279 16.3702 15.9638 16.3702C16.3454 16.3702 16.6633 16.243 16.7905 16.1794Z" fill="white"/>
<path d="M17.2344 14.0811C17.2344 15.9252 18.5062 16.3703 19.5236 16.3703C20.4774 16.3703 20.9226 16.1795 20.9226 16.1795L21.1769 14.9078C21.1769 14.9078 20.4774 15.2257 19.778 15.2257C18.3154 15.2257 18.5698 14.1447 18.5698 14.1447H21.2405C21.2405 14.1447 21.4313 13.318 21.4313 12.9365C21.4313 12.1098 20.9862 11.0288 19.5236 11.0288C18.2518 10.9652 17.2344 12.4278 17.2344 14.0811ZM19.5236 12.1734C20.2231 12.1734 20.0959 13.0001 20.0959 13.0637H18.6333C18.6969 13.0001 18.8241 12.1734 19.5236 12.1734Z" fill="white"/>
<path d="M27.8512 16.1794L28.1055 14.7168C28.1055 14.7168 27.4696 15.0348 26.9609 15.0348C26.0707 15.0348 25.6255 14.3353 25.6255 13.5086C25.6255 11.9189 26.3886 11.0922 27.3424 11.0922C27.9783 11.0922 28.5507 11.4738 28.5507 11.4738L28.7414 10.0748C28.7414 10.0748 27.9783 9.75684 27.2153 9.75684C25.6891 9.75684 24.2266 11.0922 24.2266 13.5722C24.2266 15.2255 24.9896 16.3066 26.5794 16.3066C27.1517 16.3701 27.8512 16.1794 27.8512 16.1794Z" fill="white"/>
<path d="M9.60499 10.965C8.71474 10.965 8.01525 11.2194 8.01525 11.2194L7.82448 12.364C7.82448 12.364 8.39679 12.1096 9.28704 12.1096C9.73217 12.1096 10.1137 12.1732 10.1137 12.5548C10.1137 12.8091 10.0501 12.8727 10.0501 12.8727H9.47781C8.3332 12.8727 7.125 13.3178 7.125 14.844C7.125 16.0522 7.88807 16.3065 8.39679 16.3065C9.28704 16.3065 9.73217 15.7342 9.79576 15.7342L9.73217 16.243H10.8132L11.3219 12.6184C11.3219 11.0286 10.0501 10.965 9.60499 10.965ZM9.85935 13.8901C9.85935 14.0809 9.73217 15.1619 8.9691 15.1619C8.58756 15.1619 8.46038 14.844 8.46038 14.6532C8.46038 14.3353 8.65115 13.8901 9.66858 13.8901C9.79576 13.8901 9.85935 13.8901 9.85935 13.8901Z" fill="white"/>
<path d="M12.5897 16.3067C12.9077 16.3067 14.561 16.3702 14.561 14.5897C14.561 12.9364 12.9713 13.2544 12.9713 12.6185C12.9713 12.3005 13.2256 12.1733 13.6708 12.1733C13.8615 12.1733 14.561 12.2369 14.561 12.2369L14.7518 11.0287C14.7518 11.0287 14.3067 10.9016 13.48 10.9016C12.5261 10.9016 11.5087 11.2831 11.5087 12.6185C11.5087 14.1446 13.162 14.0174 13.162 14.5897C13.162 14.9713 12.7169 15.0349 12.399 15.0349C11.8267 15.0349 11.1908 14.8441 11.1908 14.8441L11 16.0523C11.1272 16.1795 11.5087 16.3067 12.5897 16.3067Z" fill="white"/>
<path d="M38.7908 9.94751L38.5365 11.728C38.5365 11.728 38.0278 11.0921 37.2647 11.0921C36.0565 11.0921 35.0391 12.5547 35.0391 14.2716C35.0391 15.3526 35.5478 16.4336 36.6924 16.4336C37.4555 16.4336 37.9642 15.9249 37.9642 15.9249L37.9006 16.37H39.236L40.1898 10.0747L38.7908 9.94751ZM38.1549 13.3813C38.1549 14.0808 37.837 15.0347 37.0739 15.0347C36.6288 15.0347 36.3744 14.6531 36.3744 13.9536C36.3744 12.8726 36.8196 12.2367 37.4555 12.2367C37.9006 12.3003 38.1549 12.6183 38.1549 13.3813Z" fill="white"/>
<path d="M2.42023 16.2428L3.1833 11.5372L3.31048 16.2428H4.20073L5.91765 11.5372L5.21817 16.2428H6.61713L7.69816 9.94745H5.53611L4.20073 13.8264L4.13714 9.94745H2.22946L1.14844 16.2428H2.42023Z" fill="white"/>
<path d="M22.7633 16.2429C23.1449 14.0809 23.2085 12.3004 24.1623 12.6183C24.2895 11.7916 24.4803 11.4101 24.6074 11.0922H24.3531C23.7808 11.0922 23.2721 11.8552 23.2721 11.8552L23.3992 11.1558H22.1274L21.3008 16.2429H22.7633Z" fill="white"/>
<path d="M30.9019 10.965C30.0116 10.965 29.3121 11.2194 29.3121 11.2194L29.1214 12.364C29.1214 12.364 29.6937 12.1096 30.5839 12.1096C31.029 12.1096 31.4106 12.1732 31.4106 12.5548C31.4106 12.8091 31.347 12.8727 31.347 12.8727H30.7747C29.6301 12.8727 28.4219 13.3178 28.4219 14.844C28.4219 16.0522 29.1849 16.3065 29.6937 16.3065C30.5839 16.3065 31.029 15.7342 31.0926 15.7342L31.029 16.243H32.2372L32.746 12.6184C32.746 11.0286 31.347 10.965 30.9019 10.965ZM31.2198 13.8901C31.2198 14.0809 31.0926 15.1619 30.3296 15.1619C29.948 15.1619 29.8208 14.844 29.8208 14.6532C29.8208 14.3353 30.0116 13.8901 31.029 13.8901C31.1562 13.8901 31.1562 13.8901 31.2198 13.8901Z" fill="white"/>
<path d="M33.7672 16.2429C34.1488 14.0809 34.2124 12.3004 35.1662 12.6183C35.2934 11.7916 35.4842 11.4101 35.6113 11.0922H35.357C34.7847 11.0922 34.276 11.8552 34.276 11.8552L34.4031 11.1558H33.1314L32.3047 16.2429H33.7672Z" fill="white"/>
</svg>
