<svg width="70" height="20" viewBox="0 0 70 20" fill="none" xmlns="http://www.w3.org/2000/svg">
<path d="M62.8047 0H49.3281C50.1132 4.3871 54.4309 8.51614 59.1412 8.51614H69.8702C70.001 8.12904 70.001 7.48387 70.001 7.09677C70.001 3.22581 66.73 0 62.8047 0Z" fill="url(#paint0_linear_922_4521)"/>
<path d="M50.5039 9.29028V19.9999H57.046V14.3225H62.803C65.9432 14.3225 68.6908 12.129 69.6067 9.29028H50.5039Z" fill="#4FAD50"/>
<path d="M27.4766 0V19.871H33.2336C33.2336 19.871 34.6728 19.871 35.4579 18.4516C39.3831 10.8387 40.5607 8.51614 40.5607 8.51614H41.3457V19.871H47.8878V0H42.1308C42.1308 0 40.6915 0.12904 39.9065 1.41936C36.6354 8.00001 34.8037 11.3548 34.8037 11.3548H34.0186V0H27.4766Z" fill="#4FAD50"/>
<path d="M0 20V0.129028H6.54206C6.54206 0.129028 8.37385 0.129024 9.42058 2.96773C12.0374 10.4516 12.2991 11.4839 12.2991 11.4839C12.2991 11.4839 12.8224 9.67741 15.1776 2.96773C16.2243 0.129024 18.0561 0.129028 18.0561 0.129028H24.5982V20H18.0561V9.29033H17.271L13.6075 20H10.729L7.06545 9.29033H6.2804V20H0Z" fill="#4FAD50"/>
<defs>
<linearGradient id="paint0_linear_922_4521" x1="49.3048" y1="4.3191" x2="69.9547" y2="4.3191" gradientUnits="userSpaceOnUse">
<stop stop-color="#27B1E6"/>
<stop offset="1" stop-color="#148ACA"/>
</linearGradient>
</defs>
</svg>
