<svg width="70" height="20" viewBox="0 0 70 20" fill="none" xmlns="http://www.w3.org/2000/svg">
<path d="M62.7604 0.285767H58.6652C57.4271 0.285767 56.4747 0.666719 55.9033 1.90481L48.0938 19.7143H53.6176C53.6176 19.7143 54.5699 17.3334 54.7604 16.762C55.3318 16.762 60.7604 16.762 61.5223 16.762C61.7128 17.4286 62.189 19.6191 62.189 19.6191H67.1414L62.7604 0.285767ZM56.2842 12.762C56.7604 11.6191 58.3795 7.33339 58.3795 7.33339C58.3795 7.42862 58.8557 6.19053 59.0461 5.52386L59.4271 7.23815C59.4271 7.23815 60.4747 11.9048 60.6652 12.8572H56.2842V12.762Z" fill="#3362AB"/>
<path d="M48.4788 13.3333C48.4788 17.3333 44.8597 20 39.2407 20C36.8597 20 34.574 19.5238 33.3359 18.9524L34.0978 14.5714L34.7645 14.8571C36.4788 15.619 37.6216 15.9048 39.7169 15.9048C41.2407 15.9048 42.8597 15.3333 42.8597 14C42.8597 13.1429 42.1931 12.5714 40.0978 11.619C38.0978 10.6667 35.4312 9.14286 35.4312 6.38095C35.4312 2.57143 39.1455 0 44.3836 0C46.3836 0 48.0978 0.380952 49.1455 0.857143L48.3836 5.04762L48.0026 4.66667C47.0502 4.28571 45.8121 3.90476 44.0026 3.90476C42.0026 4 41.0502 4.85714 41.0502 5.61905C41.0502 6.47619 42.1931 7.14286 44.0026 8C47.0502 9.42857 48.4788 11.0476 48.4788 13.3333Z" fill="#3362AB"/>
<path d="M2 0.476289L2.09524 0.0953369H10.2857C11.4286 0.0953369 12.2857 0.476289 12.5714 1.71438L14.381 10.2858C12.5714 5.71438 8.38095 2.0001 2 0.476289Z" fill="#F9B50B"/>
<path d="M25.9049 0.285668L17.6192 19.619H12.0002L7.23828 3.42853C10.6669 5.619 13.524 9.04757 14.5716 11.4285L15.143 13.4285L20.2859 0.19043H25.9049V0.285668Z" fill="#3362AB"/>
<path d="M28.0951 0.19043H33.3331L29.9998 19.619H24.7617L28.0951 0.19043Z" fill="#3362AB"/>
</svg>
