<svg width="142" height="67" viewBox="0 0 142 67" fill="none" xmlns="http://www.w3.org/2000/svg">
<g clip-path="url(#clip0_971_1176)">
<mask id="mask0_971_1176" style="mask-type:luminance" maskUnits="userSpaceOnUse" x="0" y="0" width="142" height="67">
<path d="M142 0H0V67H142V0Z" fill="white"/>
</mask>
<g mask="url(#mask0_971_1176)">
<path d="M48.6328 33.3749C48.4984 32.599 48.3594 31.8231 48.222 31.0472C47.8982 29.2438 48.1044 30.5167 47.8509 28.6767C47.4141 25.4755 47.0216 22.1218 46.655 18.413C46.4611 16.4496 46.3191 14.4496 46.1831 12.5075C46.118 11.5746 46.0508 10.6427 45.9815 9.71179C45.9678 9.53648 45.9556 9.35965 45.9434 9.18282C45.9052 8.62185 45.8655 8.04105 45.7754 7.47093C45.6547 6.71941 45.0392 6.15386 44.21 6.03343C43.8325 5.96816 43.444 6.02604 43.102 6.19847C42.7601 6.37091 42.4829 6.64873 42.3116 6.99075C42.1342 7.373 42.0414 7.78897 42.0398 8.21026C42.0474 9.6249 42.0703 11.0639 42.0947 12.4542C42.107 13.1808 42.1182 13.9084 42.1283 14.6371V14.7011C42.1423 15.1586 42.1331 15.6165 42.1009 16.0731C41.8596 18.7789 41.1601 21.4008 40.5736 23.381C39.9185 25.6081 39.1564 27.3185 38.1744 28.7621C37.5345 29.7026 36.7204 30.7438 35.5414 31.3978C34.6113 31.9084 33.9317 31.8032 33.1987 31.038C32.4656 30.2728 32.0884 29.349 31.8043 28.5365C31.1232 26.5837 30.7979 24.4206 30.7811 21.7362C30.752 17.3962 31.1537 13.849 32.0425 10.5715C32.3312 9.51209 31.8348 8.53496 30.8345 8.19959C29.8662 7.87185 28.8491 8.3627 28.4352 9.36422C28.3528 9.55935 28.2825 9.75904 28.2092 9.95569C27.2767 12.7169 26.7369 15.5951 26.6056 18.506C26.4132 22.1203 26.6056 25.0609 27.1982 27.7651C27.7465 30.2499 28.5223 32.0075 29.7105 33.4603C31.1888 35.2667 32.9803 36.0914 35.0405 35.9084C36.4532 35.7834 37.7895 35.1721 39.1197 34.038C40.537 32.8337 41.716 31.2941 42.7331 29.349C42.9821 28.8703 43.2066 28.3886 43.4448 27.881C43.5527 28.5568 43.6617 29.2316 43.7716 29.9054C44.1183 32.0548 43.9381 31.1401 44.3199 33.3215C44.4658 34.2269 44.7223 35.111 45.0835 35.9542C45.2297 36.3007 45.4753 36.5964 45.7895 36.8039C46.1036 37.0114 46.4723 37.1215 46.849 37.1203C47.0618 37.1192 47.2733 37.0868 47.4767 37.0243C48.4373 36.7286 48.9917 35.852 48.8894 34.7895C48.8562 34.487 48.8052 34.1867 48.7367 33.8901C48.7 33.7209 48.6634 33.5456 48.6343 33.3749" fill="white"/>
<path d="M141.726 32.9268C141.592 32.1524 140.371 24.1829 140.005 20.471C139.809 18.5061 139.669 16.5 139.533 14.5595C139.467 13.6281 139.402 12.6982 139.33 11.7683L139.293 11.2378C139.255 10.6768 139.215 10.0945 139.124 9.52592C139.003 8.77287 138.389 8.20885 137.558 8.0869C137.181 8.02163 136.792 8.0795 136.45 8.25194C136.108 8.42437 135.831 8.70219 135.66 9.04422C135.483 9.42659 135.39 9.84248 135.388 10.2637C135.388 11.6799 135.419 13.1189 135.443 14.5107C135.455 15.2383 135.466 15.9655 135.477 16.6921V16.7531C135.492 17.2105 135.483 17.6684 135.451 18.125C135.209 20.8308 134.508 23.4604 133.923 25.4421C133.268 27.6692 132.505 29.3796 131.523 30.8232C130.883 31.7637 130.069 32.8049 128.89 33.4604C127.958 33.971 127.278 33.8659 126.545 33.0991C125.812 32.3323 125.434 31.4116 125.151 30.5991C124.47 28.6448 124.143 26.4832 124.126 23.7957C124.097 19.4543 124.499 15.9055 125.389 12.6281C125.676 11.561 125.18 10.5899 124.181 10.2531C123.211 9.92684 122.196 10.4162 121.779 11.4192C121.696 11.6159 121.626 11.814 121.554 12.0107C120.621 14.7728 120.081 17.652 119.951 20.564C119.758 24.1799 119.951 27.1189 120.543 29.8262C121.092 32.3125 121.866 34.0701 123.056 35.5244C124.534 37.3308 126.327 38.1555 128.387 37.9726C129.801 37.8476 131.136 37.2363 132.468 36.1021C133.885 34.8964 135.064 33.3582 136.083 31.4101C136.332 30.9329 136.558 30.4512 136.795 29.9421C136.905 30.6159 137.03 30.6906 137.406 32.8735C137.551 33.7794 137.808 34.664 138.169 35.5076C138.316 35.8543 138.561 36.15 138.876 36.3575C139.19 36.565 139.559 36.6751 139.936 36.6738C140.148 36.6728 140.359 36.6404 140.562 36.5778C141.524 36.282 142.079 35.404 141.976 34.3415C141.943 34.0385 141.892 33.7376 141.824 33.4406C141.787 33.2713 141.75 33.0976 141.721 32.9268" fill="white"/>
<path d="M118.19 32.6417C118.054 31.8597 116.298 20.5106 115.93 16.7987C115.736 14.8338 115.302 11.4161 115.292 11.2393C115.254 10.6783 115.214 10.096 115.122 9.52739C115.002 8.77434 114.388 8.21031 113.557 8.08836C113.179 8.02309 112.791 8.08097 112.449 8.2534C112.107 8.42584 111.83 8.70366 111.658 9.04568C111.481 9.42781 111.388 9.84386 111.387 10.2652C111.387 11.6814 111.387 12.2942 111.403 13.0213V13.0807C111.417 13.5382 111.408 13.9961 111.376 14.4527C111.135 17.1585 110.435 19.7881 109.849 21.7698C109.193 23.9969 108.431 25.7073 107.448 27.1509C106.808 28.0914 105.995 29.1326 104.815 29.7881C103.883 30.2987 103.205 30.1935 102.471 29.4283C101.736 28.6631 101.368 27.7362 101.076 26.9268C99.6773 23.0335 100.588 15.5243 101.478 12.2469C101.765 11.1798 101.269 10.2103 100.27 9.8719C99.3001 9.54568 98.2845 10.0365 97.8676 11.0381C97.7851 11.2347 97.7148 11.4344 97.6415 11.631C96.7252 14.2972 95.5844 22.0685 96.4686 26.1539C97.0077 28.6432 97.7927 30.3978 98.9824 31.8521C100.459 33.6585 102.254 34.4832 104.312 34.3003C105.727 34.1768 107.061 33.564 108.395 32.4298C109.812 31.224 110.991 29.6859 112.01 27.7393C112.259 27.2606 112.483 26.7789 112.72 26.2698C112.83 26.9435 113.494 30.4039 113.877 32.5868C114.023 33.4927 114.28 34.3774 114.641 35.221C114.787 35.5679 115.033 35.8638 115.348 36.0714C115.662 36.279 116.031 36.3888 116.408 36.3871C116.62 36.3869 116.832 36.3545 117.034 36.2911C117.996 35.9969 118.551 35.1189 118.448 34.0564C118.415 33.7533 118.364 33.4525 118.296 33.1554C118.259 32.9862 118.222 32.8109 118.193 32.6417" fill="white"/>
<path d="M117.842 5.00144C118.04 5.28506 118.304 5.51648 118.611 5.6758C118.918 5.83512 119.259 5.91757 119.606 5.91607C119.67 5.91607 119.734 5.91607 119.798 5.91607C122.839 5.64625 125.371 5.44961 127.767 5.29717C130.486 5.12491 133.258 5.02278 135.938 4.92369C137.16 4.87796 138.42 4.83223 139.66 4.77125C139.834 4.76538 140.007 4.74755 140.179 4.7179C140.562 4.6528 140.917 4.47167 141.194 4.19902C141.471 3.92637 141.657 3.57536 141.728 3.19351C141.782 2.90233 141.772 2.60273 141.697 2.31603C141.622 2.02934 141.485 1.7626 141.296 1.5348C141.106 1.30701 140.868 1.12377 140.599 0.998114C140.331 0.872463 140.037 0.807496 139.741 0.807837C137.234 0.749911 134.65 0.768203 132.056 0.86424C129.25 0.967898 126.405 1.16912 123.647 1.35052L120.777 1.54259C120.378 1.56851 119.951 1.60204 119.43 1.64778C119.054 1.67866 118.692 1.80754 118.382 2.02155C118.071 2.23555 117.822 2.52718 117.66 2.86729C117.499 3.19622 117.427 3.56164 117.453 3.92687C117.478 4.2921 117.599 4.64429 117.804 4.94808L117.842 5.00144Z" fill="white"/>
<path d="M82.053 13.9085C82.7724 13.503 83.0977 12.6737 82.8808 11.7957C82.7878 11.404 82.5709 11.0526 82.2623 10.7935C81.9537 10.5343 81.5698 10.3812 81.1672 10.3567C80.5902 10.3251 80.0115 10.3765 79.4491 10.5091C78.2747 10.8033 77.0895 11.1356 75.9365 11.4558L74.7147 11.7972C74.3619 11.8948 74.0107 11.9954 73.6456 12.1021L73.4746 12.1509C73.5265 11.5564 73.5774 10.9613 73.6273 10.3658C73.7159 9.38005 73.8019 8.39326 73.8854 7.40546C74.0015 6.02283 74.1191 4.53503 74.2565 2.72253C74.2936 2.10636 74.1214 1.49573 73.7678 0.989298C73.5932 0.715753 73.3588 0.485291 73.0821 0.31525C72.8054 0.145208 72.4937 0.0400173 72.1703 0.00759063C71.8536 -0.0185581 71.5351 0.0277095 71.239 0.142877C70.9428 0.258044 70.6769 0.43908 70.4614 0.672225C70.161 0.991348 69.9103 1.3536 69.7176 1.74692C69.2992 2.60363 68.9051 3.4832 68.5447 4.3582C67.1615 7.73718 65.9514 11.1842 64.9191 14.6859C64.8994 14.747 64.8609 14.8004 64.8091 14.8384C64.5037 14.9603 64.1982 15.0655 63.8622 15.1753L63.7798 15.2027C63.7798 15.1372 63.7675 15.0747 63.763 15.0106L63.5491 12.2286L63.3017 9.02741C63.2625 8.32035 62.9557 7.65454 62.4434 7.1646C62.2154 6.94002 61.9398 6.76944 61.6368 6.66548C61.3339 6.56153 61.0114 6.52684 60.6932 6.56399C60.3795 6.60518 60.0791 6.71667 59.8147 6.89011C59.5502 7.06354 59.3284 7.29444 59.166 7.56552C58.9834 7.85699 58.8386 8.17048 58.7353 8.49844C58.5694 9.04113 58.4024 9.58381 58.2344 10.1265C57.4464 12.689 56.6308 15.3384 55.8809 17.9603C55.8428 18.1272 55.765 18.2824 55.6542 18.4129C55.5434 18.5434 55.4027 18.6454 55.2441 18.7103C55.2273 18.5914 55.2105 18.4771 55.1983 18.3643L54.8501 15.0762C54.5034 11.814 54.146 8.44204 53.781 5.12649C53.7314 4.69138 53.5808 4.27381 53.3412 3.90698C53.1182 3.59577 52.8004 3.36484 52.4351 3.24864C52.0699 3.13243 51.6768 3.13718 51.3145 3.26216C50.9058 3.37927 50.5496 3.63248 50.3051 3.9797C50.0606 4.32692 49.9426 4.74721 49.9706 5.1707C49.9828 5.53046 49.9935 5.89021 50.0057 6.24997C50.0668 8.19509 50.1309 10.2134 50.2989 12.1814C50.4776 14.2713 50.7281 16.3887 50.9694 18.4314C51.0656 19.2408 51.1618 20.0503 51.2535 20.8612C51.2672 20.9786 51.2535 21.0137 51.1527 21.0747C50.583 21.4512 49.9935 21.8369 49.433 22.285C48.5884 22.9527 48.3914 24.0442 48.9672 24.8765C49.5689 25.75 50.6349 25.9542 51.6169 25.3841L51.8292 25.2606C51.9208 25.8704 52.0115 26.4751 52.1011 27.0747C52.3271 28.5838 52.5592 30.1433 52.8005 31.6768C52.9105 32.3795 53.0647 33.3048 53.2847 34.2271C53.3866 34.6796 53.6391 35.0842 54.0011 35.3749C54.3631 35.6656 54.8131 35.8252 55.2777 35.8277C55.7326 35.8388 56.1787 35.7015 56.5483 35.4365C56.918 35.1716 57.1909 34.7935 57.3257 34.3597C57.4335 34.0201 57.4982 33.6682 57.5181 33.3125C57.7106 29.8506 58.2909 26.1265 59.3508 21.5747C59.3508 21.5503 59.3661 21.5061 59.3768 21.4741C59.6211 21.3536 59.8716 21.2423 60.1404 21.1265C60.1618 21.2789 60.1831 21.4451 60.203 21.6021C60.2839 22.2119 60.3557 22.7866 60.4458 23.3658C60.4718 23.5548 60.4993 23.7454 60.5252 23.9344C60.6169 24.5899 60.71 25.2652 60.8444 25.9268L60.8689 26.0427C61.0888 27.1234 61.3148 28.2393 61.6478 29.3125C61.9532 30.2926 62.758 30.8369 63.8577 30.7744C64.9893 30.7225 65.7484 30.1478 66.0507 29.1158C66.179 28.6768 66.2722 28.2241 66.3562 27.7866L66.3791 27.6737C66.6174 26.5203 66.8541 25.3663 67.0893 24.2119C67.4741 22.343 67.8595 20.473 68.2454 18.6021C68.3416 18.1372 68.4424 17.9923 68.8272 17.9466L68.7891 18.6798C68.7494 19.442 68.7081 20.192 68.673 20.9466C68.2988 28.7378 68.1324 27.9862 68.5203 35.6631C68.5374 36.2098 68.6189 36.7527 68.7631 37.2805C68.8893 37.6975 69.147 38.0628 69.4978 38.3221C69.8486 38.5813 70.2738 38.7207 70.7103 38.7195C70.8254 38.7193 70.9403 38.7101 71.0539 38.692C71.5492 38.6198 72.0014 38.3709 72.3268 37.9914C72.6523 37.6119 72.8289 37.1275 72.824 36.628C72.8208 36.4496 72.808 36.2715 72.7858 36.0945C72.7705 35.9573 72.7568 35.8277 72.7522 35.6997C72.7186 34.7515 72.6636 33.0884 72.6331 31.7362C72.4804 25.0533 72.6988 23.7622 73.1218 16.8826C73.1356 16.6661 73.1661 16.625 73.3539 16.5777C75.3775 16.0228 77.7753 15.3582 80.2158 14.6463C80.8531 14.4709 81.468 14.2229 82.0484 13.907" fill="white"/>
<path d="M93.4275 35.1081C93.4184 34.8962 93.4107 34.6828 93.4046 34.4693C93.3726 33.4572 93.3191 32.6721 93.2824 31.6584C93.203 29.4282 93.2275 30.2331 93.1969 27.9663C93.1419 23.9556 93.1038 19.6477 93.1817 15.3139C93.2305 12.5593 93.3542 9.75899 93.4749 7.05014C93.5299 5.81691 93.5589 4.82149 93.6077 3.56691C93.6156 3.37164 93.61 3.17605 93.591 2.98155C93.556 2.59471 93.3995 2.22876 93.1439 1.93588C92.8884 1.64299 92.5467 1.43812 92.1676 1.35045C91.9086 1.28146 91.6377 1.27 91.3738 1.31688C91.1099 1.36376 90.8595 1.46785 90.6403 1.62179C90.3968 1.8053 90.1957 2.03903 90.0507 2.30708C89.9058 2.57513 89.8204 2.8712 89.8004 3.17515C89.7403 3.74222 89.6792 4.30878 89.6171 4.87484C89.4018 6.85655 89.2048 8.61264 89.1162 10.6325C88.9894 13.4694 88.9512 16.3565 88.9146 19.1477C88.9024 20.1162 88.8886 21.0816 88.8733 22.044C88.8596 22.8169 88.8825 23.6462 88.884 23.9404L80.1788 25.7056C80.1788 25.6096 80.2201 24.57 80.2201 24.57C80.2323 23.9409 80.244 23.3118 80.2552 22.6828C80.2812 21.2224 80.2751 20.6218 80.3178 19.137C80.3367 18.785 80.2649 18.434 80.1093 18.1175C79.9537 17.801 79.7195 17.5296 79.429 17.3291C79.1644 17.1536 78.8581 17.0512 78.541 17.0321C78.2239 17.0131 77.9075 17.0782 77.6238 17.2209C77.3028 17.3745 77.0288 17.611 76.8301 17.9058C76.6314 18.2006 76.5153 18.543 76.4936 18.8977C76.4509 19.3276 76.4051 19.7559 76.3608 20.1843C76.2081 21.6492 75.9347 29.3581 75.8843 33.1782C75.8675 34.3581 75.814 34.1812 75.8934 34.855C75.9495 35.3193 76.1653 35.7498 76.504 36.0728C76.8427 36.3959 77.2833 36.5916 77.7506 36.6264H77.778C78.2387 36.6687 78.7001 36.5538 79.0868 36.3005C79.4736 36.0471 79.7627 35.6702 79.907 35.2315C80.0094 34.8945 80.0609 34.5441 80.0597 34.1919C80.0842 32.4983 80.1055 31.8581 80.1147 31.4053L80.1239 29.7041C83.1117 29.4613 86.0744 28.9729 88.9818 28.2437C89.0108 29.0715 89.0413 31.2056 89.0704 32.0334C89.1544 34.4328 89.1498 33.5776 89.2536 36.0166C89.266 36.5805 89.3776 37.1377 89.5835 37.6629C89.7101 37.9657 89.9118 38.2314 90.1696 38.4348C90.4274 38.6383 90.7329 38.773 91.0573 38.8261C91.3995 38.8821 91.7504 38.8497 92.0766 38.732C92.4027 38.6144 92.6933 38.4153 92.9205 38.1538C93.2853 37.7357 93.4789 37.1958 93.4627 36.6416C93.4627 36.1233 93.4428 35.6004 93.4245 35.0928" fill="white"/>
<path d="M24.7225 30.881C24.521 28.3307 24.3362 25.6173 24.1269 22.0837C23.9101 18.445 23.9482 10.6508 24.0139 9.03039L24.0551 7.97856C24.0658 7.7438 24.0918 7.50905 24.1178 7.27582C24.1498 6.98466 24.1819 6.6935 24.185 6.40387C24.1951 5.95654 24.0406 5.52103 23.7507 5.17973C23.4608 4.83843 23.0557 4.615 22.6119 4.55173C22.1729 4.48357 21.7238 4.57401 21.3456 4.80678C20.9674 5.03955 20.6848 5.39938 20.5486 5.82155C20.5027 5.95753 20.4664 6.0966 20.4402 6.23771C19.9973 8.38862 19.7514 12.9222 19.756 14.878C19.756 15.7214 19.756 16.5639 19.756 17.4054V17.7911L13.0362 18.9405C13.024 18.788 13.0148 18.6493 13.0087 18.5151L12.9262 16.5609C12.8545 14.8551 12.7812 13.1478 12.7231 11.4405C12.6712 9.8932 12.6284 8.34441 12.5857 6.79563L12.5078 4.02734C12.5047 3.80321 12.4786 3.57999 12.4299 3.36118C12.3441 2.99159 12.1453 2.65778 11.861 2.40597C11.5767 2.15415 11.221 1.9968 10.8431 1.95569C10.4766 1.90773 10.1042 1.97342 9.77638 2.14385C9.44855 2.31428 9.18115 2.5812 9.01044 2.90844C8.85212 3.24424 8.75539 3.60564 8.72485 3.97551C8.49511 6.58171 8.43746 9.20017 8.55227 11.8139L8.85772 19.3932C8.85948 19.4528 8.85591 19.5125 8.84703 19.5716L7.89251 19.7316C6.58673 19.9481 5.29622 20.1615 4.01794 20.3719C3.69875 20.4237 3.3765 20.4694 3.05731 20.5243C2.57623 20.5929 2.09668 20.6615 1.62019 20.7484C0.593893 20.9283 -0.0673956 21.753 -0.000197605 22.7469C0.077691 23.8139 0.977227 24.5243 2.09821 24.4572C3.27876 24.3841 4.56774 24.2789 6.03693 24.1356C6.78069 24.0639 7.52139 23.9725 8.28806 23.8795L9.07458 23.7834V23.8216C9.09596 24.0761 9.11582 24.3094 9.13262 24.5441L9.31894 27.3932C9.45181 29.4344 9.58468 31.477 9.72976 33.5197C9.81529 34.7164 9.92219 35.6813 10.0627 36.5578C10.1568 37.0582 10.3517 37.5342 10.6354 37.9572C10.8328 38.2683 11.1213 38.5112 11.4617 38.653C11.8021 38.7948 12.178 38.8286 12.5383 38.7499C12.9127 38.6981 13.2619 38.532 13.5381 38.2744C13.8142 38.0168 14.0038 37.6802 14.0808 37.3109C14.1686 36.9019 14.1994 36.4828 14.1725 36.0655C14.1572 35.7499 14.1221 35.4374 14.0839 35.1219C14.0549 34.8749 14.0274 34.6295 14.0091 34.381C13.7749 31.0131 13.5453 27.6457 13.3203 24.2789L13.2561 23.3353C13.2561 23.2712 13.2561 23.2072 13.2561 23.1432L19.9133 21.9953C19.9255 22.1097 19.9362 22.2164 19.9439 22.3246C20.0156 23.3185 20.0828 24.3063 20.1516 25.3063C20.3043 27.6188 20.4738 30.0106 20.6754 32.3627C20.7792 33.5822 20.9808 34.8017 21.1885 35.9755L21.3229 36.7728C21.4278 37.4514 21.6985 38.0937 22.111 38.6432C22.2942 38.8948 22.5338 39.1002 22.8106 39.2431C23.0874 39.386 23.3938 39.4625 23.7054 39.4664C23.9134 39.4657 24.1198 39.4307 24.3163 39.3627C24.7249 39.2277 25.0768 38.961 25.3168 38.6044C25.5568 38.2479 25.6712 37.8218 25.6419 37.3932C25.6244 37.0205 25.5733 36.6501 25.4892 36.2865C25.0463 34.4161 24.8554 32.5045 24.7256 30.881" fill="white"/>
<path d="M17.8363 52.1036L17.8226 46.6676L15.1454 51.1432H14.2092L11.5304 46.7712V52.1036H9.5542V43.0212H11.2968L14.7025 48.6661L18.0563 43.0212H19.7988L19.8126 52.1036H17.8363Z" fill="white"/>
<path d="M23.8616 51.6493C23.1252 51.2639 22.5092 50.6838 22.0809 49.9725C21.6596 49.24 21.438 48.4101 21.438 47.5655C21.438 46.7209 21.6596 45.891 22.0809 45.1584C22.5092 44.4471 23.1252 43.867 23.8616 43.4816C24.6521 43.0808 25.5262 42.8718 26.4128 42.8718C27.2995 42.8718 28.1736 43.0808 28.9641 43.4816C29.7064 43.8765 30.3272 44.4654 30.76 45.1853C31.1929 45.9051 31.4216 46.7289 31.4216 47.5685C31.4216 48.4081 31.1929 49.2319 30.76 49.9518C30.3272 50.6716 29.7064 51.2605 28.9641 51.6554C28.1736 52.0563 27.2995 52.2652 26.4128 52.2652C25.5262 52.2652 24.6521 52.0563 23.8616 51.6554M27.8721 50.1051C28.302 49.8624 28.6558 49.5051 28.8938 49.0731C29.1366 48.6086 29.2634 48.0924 29.2634 47.5685C29.2634 47.0446 29.1366 46.5284 28.8938 46.0639C28.6558 45.6319 28.302 45.2746 27.8721 45.0319C27.4254 44.7888 26.9247 44.6615 26.4159 44.6615C25.9071 44.6615 25.4064 44.7888 24.9597 45.0319C24.5305 45.2751 24.1773 45.6323 23.9395 46.0639C23.6967 46.5284 23.57 47.0446 23.57 47.5685C23.57 48.0924 23.6967 48.6086 23.9395 49.0731C24.1773 49.5047 24.5305 49.8619 24.9597 50.1051C25.4064 50.3482 25.9071 50.4756 26.4159 50.4756C26.9247 50.4756 27.4254 50.3482 27.8721 50.1051Z" fill="white"/>
<path d="M40.8729 43.0212V52.1036H38.7912V44.7331H35.6727L35.607 46.6279C35.591 47.6792 35.4888 48.7274 35.3015 49.7621C35.1366 50.5629 34.8612 51.1772 34.4753 51.6051C34.0894 52.0329 33.5498 52.2468 32.8564 52.2468C32.5055 52.2385 32.1565 52.1904 31.8164 52.1036L31.9477 50.3261C32.0696 50.3623 32.1963 50.3798 32.3234 50.3779C32.8274 50.3779 33.1772 50.0822 33.3772 49.4892C33.5773 48.8962 33.7025 47.9648 33.7545 46.7057L33.8843 43.0212H40.8729Z" fill="white"/>
<path d="M44.9354 51.6493C44.1983 51.2644 43.5816 50.6842 43.1531 49.9725C42.7319 49.24 42.5103 48.4101 42.5103 47.5655C42.5103 46.7209 42.7319 45.891 43.1531 45.1584C43.5816 44.4467 44.1983 43.8665 44.9354 43.4816C45.7259 43.0808 46.6 42.8718 47.4866 42.8718C48.3733 42.8718 49.2474 43.0808 50.0379 43.4816C50.7797 43.8769 51.4001 44.4659 51.8326 45.1857C52.2652 45.9055 52.4936 46.7291 52.4936 47.5685C52.4936 48.4079 52.2652 49.2315 51.8326 49.9513C51.4001 50.6712 50.7797 51.2602 50.0379 51.6554C49.2474 52.0563 48.3733 52.2652 47.4866 52.2652C46.6 52.2652 45.7259 52.0563 44.9354 51.6554M48.9459 50.1051C49.3751 49.8619 49.7282 49.5047 49.9661 49.0731C50.2088 48.6086 50.3356 48.0924 50.3356 47.5685C50.3356 47.0446 50.2088 46.5284 49.9661 46.0639C49.7282 45.6323 49.3751 45.2751 48.9459 45.0319C48.4992 44.7888 47.9985 44.6615 47.4897 44.6615C46.9809 44.6615 46.4802 44.7888 46.0335 45.0319C45.6036 45.2742 45.2502 45.6317 45.0133 46.0639C44.7695 46.5281 44.6422 47.0444 44.6422 47.5685C44.6422 48.0926 44.7695 48.6089 45.0133 49.0731C45.2502 49.5054 45.6036 49.8629 46.0335 50.1051C46.4802 50.3482 46.9809 50.4756 47.4897 50.4756C47.9985 50.4756 48.4992 50.3482 48.9459 50.1051Z" fill="white"/>
<path d="M63.2266 50.3917V53.9862H61.2687V52.1036H54.8468V53.9862H52.8965L52.9102 50.3917H53.2737C53.8205 50.3734 54.2063 49.975 54.4313 49.1965C54.6564 48.4181 54.7948 47.3068 54.8468 45.8627L54.9506 43.0212H61.9453V50.3917H63.2266ZM56.4335 48.7804C56.2951 49.5101 56.0828 50.0487 55.7967 50.3962H59.8667V44.7331H56.7451L56.7054 46.0578C56.6798 46.9707 56.589 47.8805 56.4335 48.7804Z" fill="white"/>
<path d="M71.6829 50.4177V52.1037H64.6362V43.0214H71.5088V44.7073H66.7285V46.6799H70.9544V48.3232H66.7285V50.4253L71.6829 50.4177ZM66.1176 41.9634C65.9512 41.7908 65.8583 41.5605 65.8583 41.3209C65.8583 41.0813 65.9512 40.851 66.1176 40.6784C66.2038 40.5951 66.3057 40.5298 66.4174 40.4864C66.5291 40.4429 66.6484 40.4222 66.7682 40.4253C66.8892 40.4203 67.0099 40.4398 67.1231 40.4826C67.2363 40.5253 67.3397 40.5905 67.427 40.6742C67.5144 40.7578 67.5839 40.8582 67.6313 40.9694C67.6788 41.0805 67.7033 41.2001 67.7033 41.3209C67.7033 41.4417 67.6788 41.5613 67.6313 41.6724C67.5839 41.7836 67.5144 41.884 67.427 41.9676C67.3397 42.0513 67.2363 42.1165 67.1231 42.1592C67.0099 42.202 66.8892 42.2215 66.7682 42.2165C66.6483 42.22 66.529 42.1994 66.4172 42.1559C66.3054 42.1124 66.2036 42.047 66.1176 41.9634ZM68.7506 41.9634C68.6217 41.8381 68.5335 41.6769 68.4975 41.5009C68.4615 41.3249 68.4793 41.1422 68.5486 40.9764C68.6179 40.8106 68.7355 40.6694 68.8862 40.5711C69.0368 40.4729 69.2136 40.4221 69.3935 40.4253C69.5134 40.422 69.6327 40.4427 69.7445 40.4861C69.8562 40.5296 69.9581 40.595 70.0441 40.6784C70.2105 40.851 70.3035 41.0813 70.3035 41.3209C70.3035 41.5605 70.2105 41.7908 70.0441 41.9634C69.9583 42.0471 69.8565 42.1127 69.7447 42.1561C69.6329 42.1996 69.5135 42.2201 69.3935 42.2165C69.2747 42.2204 69.1564 42.1999 69.0458 42.1564C68.9352 42.1129 68.8348 42.0472 68.7506 41.9634Z" fill="white"/>
<path d="M81.5488 48.445H80.2232V52.1036H78.1569V48.445H76.8038L74.7634 52.1036H72.332L75.0627 47.3551L72.5016 43.0212H74.7237L76.7656 46.6935H78.1569V43.0212H80.2232V46.6935H81.5748L83.6289 43.0212H85.8526L83.3036 47.3551L86.0206 52.1036H83.5908L81.5488 48.445Z" fill="white"/>
<path d="M95.381 43.0212V52.1036H93.2749V48.3795H89.1407V52.1036H87.0347V43.0212H89.1407V46.602H93.2749V43.0212H95.381Z" fill="white"/>
<path d="M103.819 50.1523H99.5932L98.7884 52.0989H96.6289L100.685 43.0166H102.765L106.835 52.0989H104.625L103.819 50.1523ZM103.156 48.5562L101.713 45.0837L100.27 48.5608L103.156 48.5562Z" fill="white"/>
<path d="M114.847 43.0214V52.1037H112.762V49.6952H110.838L109.227 52.1037H107.003L108.901 49.3598C108.322 49.1381 107.826 48.741 107.484 48.2241C107.142 47.6764 106.971 47.0399 106.991 46.3949C106.974 45.7581 107.141 45.1299 107.472 44.5854C107.802 44.0714 108.277 43.6654 108.836 43.4177C109.491 43.1317 110.201 42.9923 110.916 43.0092L114.847 43.0214ZM109.601 45.1555C109.285 45.4314 109.127 45.843 109.127 46.3872C109.127 46.9314 109.28 47.3217 109.586 47.6067C109.891 47.8918 110.334 48.0351 110.923 48.0351H112.77V44.7333H110.969C110.371 44.7333 109.914 44.872 109.595 45.1494" fill="white"/>
<path d="M11.3425 64.634C10.61 64.2475 9.99822 63.6674 9.57396 62.9571C9.15208 62.2201 8.93018 61.386 8.93018 60.5372C8.93018 59.6883 9.15208 58.8542 9.57396 58.1172C9.99778 57.4066 10.6097 56.8264 11.3425 56.4404C12.121 56.0287 12.9907 55.8191 13.8716 55.8306C14.6053 55.8201 15.3333 55.9613 16.0097 56.2453C16.6313 56.5116 17.1813 56.9205 17.6148 57.4389L16.2632 58.6858C15.9868 58.347 15.6371 58.075 15.2403 57.8902C14.8436 57.7054 14.4101 57.6126 13.9724 57.6187C13.4457 57.6096 12.9258 57.7373 12.4635 57.9892C12.0284 58.2287 11.6704 58.5866 11.4311 59.0212C11.1873 59.4856 11.06 60.0022 11.06 60.5265C11.06 61.0508 11.1873 61.5674 11.4311 62.0318C11.6705 62.466 12.0285 62.8233 12.4635 63.0623C12.9258 63.3142 13.4457 63.4419 13.9724 63.4328C14.4112 63.4386 14.8455 63.3446 15.2425 63.1579C15.6394 62.9712 15.9885 62.6966 16.2632 62.355L17.6148 63.602C17.1832 64.1279 16.6303 64.5416 16.0036 64.8078C15.3261 65.0993 14.5956 65.2478 13.8578 65.2437C12.9814 65.2542 12.1164 65.0445 11.3425 64.634Z" fill="white"/>
<path d="M25.8575 57.7102H22.9451V65.0807H20.865V57.7102H17.9663V55.9968H25.8575V57.7102Z" fill="white"/>
<path d="M28.8396 64.6249C28.1032 64.2395 27.4872 63.6594 27.0589 62.9481C26.6377 62.2156 26.416 61.3857 26.416 60.5411C26.416 59.6965 26.6377 58.8666 27.0589 58.1341C27.4876 57.4231 28.1036 56.8431 28.8396 56.4572C29.6304 56.0563 30.5047 55.8474 31.3916 55.8474C32.2785 55.8474 33.1529 56.0563 33.9436 56.4572C34.6855 56.8525 35.3058 57.4415 35.7384 58.1613C36.1709 58.8811 36.3994 59.7047 36.3994 60.5441C36.3994 61.3835 36.1709 62.2071 35.7384 62.9269C35.3058 63.6468 34.6855 64.2358 33.9436 64.631C33.1532 65.0328 32.2787 65.2423 31.3916 65.2423C30.5046 65.2423 29.6301 65.0328 28.8396 64.631M32.8501 63.0807C33.28 62.8386 33.6338 62.4818 33.8718 62.0502C34.1146 61.5854 34.2414 61.069 34.2414 60.5449C34.2414 60.0207 34.1146 59.5043 33.8718 59.0395C33.6338 58.6075 33.2801 58.2502 32.8501 58.0075C32.4037 57.7644 31.9032 57.6371 31.3947 57.6371C30.8861 57.6371 30.3857 57.7644 29.9392 58.0075C29.5094 58.2498 29.156 58.6073 28.919 59.0395C28.6753 59.504 28.5479 60.0205 28.5479 60.5449C28.5479 61.0692 28.6753 61.5857 28.919 62.0502C29.1561 62.482 29.5095 62.839 29.9392 63.0807C30.3857 63.3238 30.8861 63.4512 31.3947 63.4512C31.9032 63.4512 32.4037 63.3238 32.8501 63.0807Z" fill="white"/>
<path d="M45.8518 55.9968V65.0791H43.7717V57.7102H40.6516L40.5859 59.6035C40.5699 60.6548 40.4678 61.703 40.2805 62.7377C40.1155 63.5385 39.8406 64.1528 39.4558 64.5807C39.0709 65.0085 38.5313 65.2224 37.8369 65.2224C37.4859 65.2141 37.137 65.1661 36.7969 65.0791L36.9267 63.3017C37.0491 63.3379 37.1763 63.3553 37.3039 63.3535C37.8059 63.3535 38.1566 63.0573 38.3562 62.4648C38.5557 61.8723 38.6815 60.9445 38.7334 59.6813L38.8632 55.9968H45.8518Z" fill="white"/>
<path d="M48.1255 55.9968H50.2193V61.913L54.5612 55.9968H56.5375V65.0807H54.4574V59.1767L50.1155 65.0807H48.1255V55.9968Z" fill="white"/>
<path d="M68.3414 63.3673V66.9999H66.4049V65.0807H58.7993V55.9968H60.8916V63.3673H64.9479V55.9968H67.0418V63.3673H68.3414Z" fill="white"/>
<path d="M75.9729 63.134H71.7471L70.9407 65.0791H68.7827L72.839 55.9968H74.9191L78.9876 65.0791H76.7777L75.9729 63.134ZM75.3086 61.538L73.8669 58.0593L72.4236 61.538H75.3086Z" fill="white"/>
<path d="M89.9151 56.4023C90.4834 56.6383 90.9656 57.0424 91.2969 57.5602C91.6281 58.0781 91.7924 58.6848 91.7676 59.2987C91.7817 59.9149 91.6144 60.5217 91.2866 61.0441C90.952 61.5523 90.4735 61.9498 89.9121 62.1859C89.2482 62.4611 88.5338 62.5941 87.8152 62.5761H85.9825V65.0792H83.8765V55.9968H87.8152C88.5361 55.9809 89.2521 56.1192 89.9151 56.4023ZM89.1408 60.4572C89.3072 60.3146 89.4384 60.1356 89.5242 59.9341C89.61 59.7327 89.6482 59.5142 89.6356 59.2956C89.6356 58.7875 89.4707 58.3962 89.1408 58.1218C88.8109 57.8474 88.3299 57.7113 87.6976 57.7133H85.9825V60.8657H87.6976C88.3309 60.8657 88.8119 60.7296 89.1408 60.4572Z" fill="white"/>
<path d="M95.0755 64.6249C94.3391 64.2395 93.7231 63.6594 93.2947 62.9481C92.8735 62.2155 92.6519 61.3857 92.6519 60.541C92.6519 59.6964 92.8735 58.8666 93.2947 58.134C93.7235 57.423 94.3394 56.8431 95.0755 56.4572C95.8659 56.0563 96.7401 55.8474 97.6267 55.8474C98.5133 55.8474 99.3875 56.0563 100.178 56.4572C100.92 56.8524 101.54 57.4415 101.973 58.1613C102.405 58.8811 102.634 59.7047 102.634 60.5441C102.634 61.3835 102.405 62.2071 101.973 62.9269C101.54 63.6467 100.92 64.2357 100.178 64.631C99.3878 65.0328 98.5135 65.2423 97.6267 65.2423C96.7399 65.2423 95.8657 65.0328 95.0755 64.631M99.086 63.0807C99.5157 62.839 99.8691 62.482 100.106 62.0502C100.35 61.5857 100.477 61.0692 100.477 60.5449C100.477 60.0205 100.35 59.504 100.106 59.0395C99.8692 58.6072 99.5158 58.2498 99.086 58.0075C98.6392 57.7644 98.1386 57.637 97.6298 57.637C97.121 57.637 96.6203 57.7644 96.1735 58.0075C95.7444 58.2507 95.3912 58.6079 95.1534 59.0395C94.9106 59.5043 94.7838 60.0207 94.7838 60.5449C94.7838 61.069 94.9106 61.5854 95.1534 62.0502C95.3912 62.4814 95.7444 62.8381 96.1735 63.0807C96.6203 63.3238 97.121 63.4512 97.6298 63.4512C98.1386 63.4512 98.6392 63.3238 99.086 63.0807Z" fill="white"/>
<path d="M106.021 64.634C105.289 64.2471 104.678 63.667 104.254 62.9571C103.832 62.2201 103.61 61.386 103.61 60.5372C103.61 59.6884 103.832 58.8542 104.254 58.1172C104.678 57.407 105.289 56.8269 106.021 56.4404C106.8 56.0287 107.669 55.8191 108.55 55.8306C109.284 55.8201 110.012 55.9613 110.688 56.2453C111.31 56.5115 111.861 56.9205 112.295 57.4389L110.942 58.6858C110.665 58.347 110.316 58.075 109.919 57.8902C109.522 57.7054 109.089 57.6126 108.651 57.6187C108.125 57.6095 107.605 57.7371 107.144 57.9892C106.708 58.2287 106.35 58.5865 106.11 59.0212C105.866 59.4856 105.739 60.0022 105.739 60.5265C105.739 61.0508 105.866 61.5674 106.11 62.0318C106.35 62.4661 106.708 62.8234 107.144 63.0623C107.605 63.3144 108.125 63.442 108.651 63.4328C109.09 63.4386 109.524 63.3446 109.921 63.1579C110.318 62.9712 110.667 62.6966 110.942 62.355L112.295 63.602C111.863 64.1283 111.31 64.542 110.682 64.8078C110.006 65.0915 109.278 65.2332 108.544 65.2239C107.667 65.2346 106.802 65.0249 106.027 64.6142" fill="white"/>
<path d="M115.265 64.6342C114.533 64.2478 113.921 63.6677 113.497 62.9574C113.075 62.2204 112.853 61.3862 112.853 60.5374C112.853 59.6886 113.075 58.8544 113.497 58.1174C113.921 57.4068 114.533 56.8266 115.265 56.4406C116.043 56.0288 116.912 55.8191 117.793 55.8308C118.527 55.8206 119.255 55.9617 119.931 56.2455C120.553 56.5118 121.103 56.9207 121.536 57.4391L120.192 58.6967C119.916 58.3579 119.566 58.0859 119.169 57.9011C118.773 57.7163 118.339 57.6235 117.901 57.6296C117.375 57.6204 116.856 57.748 116.394 58.0001C115.959 58.24 115.6 58.5977 115.36 59.0321C115.117 59.4968 114.99 60.0132 114.99 60.5374C114.99 61.0616 115.117 61.578 115.36 62.0427C115.601 62.4766 115.959 62.8338 116.394 63.0732C116.856 63.3258 117.375 63.454 117.901 63.4452C118.34 63.4512 118.775 63.3572 119.171 63.1705C119.568 62.9837 119.918 62.7091 120.192 62.3674L121.545 63.6144C121.113 64.1407 120.56 64.5545 119.933 64.8202C119.256 65.1039 118.528 65.2456 117.794 65.2363C116.918 65.2472 116.053 65.0375 115.279 64.6266" fill="white"/>
<path d="M122.916 55.9968H125.008V61.913L129.351 55.9968H131.326V65.0807H129.246V59.1767L124.904 65.0807H122.916V55.9968Z" fill="white"/>
<path d="M133.589 55.9968H135.682V61.913L140.024 55.9968H142V65.0807H139.92V59.1767L135.578 65.0807H133.589V55.9968Z" fill="white"/>
</g>
</g>
<defs>
<clipPath id="clip0_971_1176">
<rect width="142" height="67" fill="white"/>
</clipPath>
</defs>
</svg>
