<?xml version="1.0" encoding="utf-8"?><svg viewBox="0 0 536 501" xmlns="http://www.w3.org/2000/svg" xmlns:xlink="http://www.w3.org/1999/xlink"><style>:root>svg{display:none}:root>svg:target{display:block}</style><svg viewBox="0 0 17 9" id="arrow_checkbox" xmlns="http://www.w3.org/2000/svg"><path fill-rule="evenodd" clip-rule="evenodd" d="M1.178.33a1.064 1.064 0 011.54 0l5.76 5.954L14.24.33a1.064 1.064 0 011.54 0 1.15 1.15 0 010 1.59L9.25 8.67c-.426.44-1.115.44-1.54 0L1.18 1.92a1.152 1.152 0 010-1.59z"/></svg><svg viewBox="0 0 43 41" id="arrow_right" xmlns="http://www.w3.org/2000/svg"><path d="M26.792 36.99c2.202-2.003 4.406-4.003 6.612-5.999 2.617-2.376 5.223-4.763 7.85-7.124.257-.194.463-.466.596-.786.134-.32.19-.677.162-1.031a4.058 4.058 0 010-.384 2.061 2.061 0 00-.218-1.138 1.648 1.648 0 00-.768-.75c-3.76-2.133-7.511-4.29-11.267-6.435-3.643-2.082-7.287-4.164-10.933-6.245a1.186 1.186 0 00-1.354.127 1.533 1.533 0 00-.452.626 1.73 1.73 0 00.116 1.537c.131.216.306.39.51.507l19.617 11.209 1.605.92c-.14.14-.24.247-.35.345l-4.89 4.432-7.09 6.454c-.502.451-1.004.897-1.5 1.36-.202.174-.357.41-.45.682a1.808 1.808 0 00-.07.855c.033.268.13.52.279.729a1.271 1.271 0 001.321.508 1.36 1.36 0 00.674-.398z"/><rect y="20.368" width="42.085" height="3.058" rx="1.529"/></svg><svg viewBox="0 0 34 34" id="avatar" xmlns="http://www.w3.org/2000/svg"><path d="M16.999 29c-4.167 0-7.85-2.133-10-5.333.05-3.334 6.666-5.167 10-5.167 3.333 0 9.95 1.833 10 5.167a12.053 12.053 0 01-10 5.333zm0-23.667a5 5 0 110 10 5 5 0 010-10zm0-5A16.667 16.667 0 1033.665 17C33.665 7.783 26.165.333 17 .333z"/></svg><svg viewBox="0 0 536 501" id="success" xmlns="http://www.w3.org/2000/svg"><path d="M17.269 266.49l92.41-78.87 88.2 133.98 172.38-304.34 148.99 86.16-316.181 380.82-185.8-217.75z"/></svg></svg>